<?xml version="1.0" encoding="utf-8"?><svg xmlns="http://www.w3.org/2000/svg" xmlns:xlink="http://www.w3.org/1999/xlink" width="1126" height="575" preserveAspectRatio="xMidYMid" viewBox="0 0 1126 575" style="z-index:1;margin-right:-2px;display:block;background-repeat-y:initial;background-repeat-x:initial;background-color:rgb(241, 242, 243);animation-play-state:paused" ><g transform="translate(563,287.5) scale(1,1) translate(-563,-287.5)" style="transform:matrix(1, 0, 0, 1, 0, 0);animation-play-state:paused" ><g id="bk-0.3567116736347016" style="animation-play-state:paused" ><path d="M 561 289 L 559 356 L 656 373 Z" stroke="#fdead9" fill="#fdead9" style="animation-play-state:paused" ></path>
<path d="M 656 373 L 665 282 L 561 289 Z" stroke="#fdebd9" fill="#fdebd9" style="animation-play-state:paused" ></path>
<path d="M 568 483 L 643 485 L 656 373 Z" stroke="#fae4cf" fill="#fae4cf" style="animation-play-state:paused" ></path>
<path d="M 760 374 L 754 270 L 665 282 Z" stroke="#fce8d5" fill="#fce8d5" style="animation-play-state:paused" ></path>
<path d="M 456 260 L 448 379 L 559 356 Z" stroke="#ffeedf" fill="#ffeedf" style="animation-play-state:paused" ></path>
<path d="M 559 356 L 568 483 L 656 373 Z" stroke="#fbe7d3" fill="#fbe7d3" style="animation-play-state:paused" ></path>
<path d="M 464 500 L 568 483 L 559 356 Z" stroke="#fbe7d4" fill="#fbe7d4" style="animation-play-state:paused" ></path>
<path d="M 478 179 L 456 260 L 561 289 Z" stroke="#f4f4f4" fill="#f4f4f4" style="animation-play-state:paused" ></path>
<path d="M 561 289 L 456 260 L 559 356 Z" stroke="#ffefdf" fill="#ffefdf" style="animation-play-state:paused" ></path>
<path d="M 665 282 L 679 189 L 561 289 Z" stroke="#ffeedf" fill="#ffeedf" style="animation-play-state:paused" ></path>
<path d="M 760 374 L 665 282 L 656 373 Z" stroke="#fbe7d4" fill="#fbe7d4" style="animation-play-state:paused" ></path>
<path d="M 665 282 L 754 270 L 679 189 Z" stroke="#feeddd" fill="#feeddd" style="animation-play-state:paused" ></path>
<path d="M 679 189 L 547 161 L 561 289 Z" stroke="#f3f3f3" fill="#f3f3f3" style="animation-play-state:paused" ></path>
<path d="M 643 485 L 760 374 L 656 373 Z" stroke="#f9e3ce" fill="#f9e3ce" style="animation-play-state:paused" ></path>
<path d="M 547 161 L 478 179 L 561 289 Z" stroke="#f4f4f4" fill="#f4f4f4" style="animation-play-state:paused" ></path>
<path d="M 448 379 L 464 500 L 559 356 Z" stroke="#fdead9" fill="#fdead9" style="animation-play-state:paused" ></path>
<path d="M 836 257 L 785 200 L 754 270 Z" stroke="#fdebda" fill="#fdebda" style="animation-play-state:paused" ></path>
<path d="M 754 270 L 785 200 L 679 189 Z" stroke="#feeede" fill="#feeede" style="animation-play-state:paused" ></path>
<path d="M 679 189 L 560 78 L 547 161 Z" stroke="#f6f6f6" fill="#f6f6f6" style="animation-play-state:paused" ></path>
<path d="M 666 570 L 764 502 L 643 485 Z" stroke="#f7dec6" fill="#f7dec6" style="animation-play-state:paused" ></path>
<path d="M 643 485 L 764 502 L 760 374 Z" stroke="#f8e0c9" fill="#f8e0c9" style="animation-play-state:paused" ></path>
<path d="M 760 374 L 850 371 L 754 270 Z" stroke="#fae4d0" fill="#fae4d0" style="animation-play-state:paused" ></path>
<path d="M 666 570 L 643 485 L 568 483 Z" stroke="#f8e1ca" fill="#f8e1ca" style="animation-play-state:paused" ></path>
<path d="M 650 87 L 560 78 L 679 189 Z" stroke="#f6f6f6" fill="#f6f6f6" style="animation-play-state:paused" ></path>
<path d="M 547 161 L 474 75 L 478 179 Z" stroke="#f7f7f7" fill="#f7f7f7" style="animation-play-state:paused" ></path>
<path d="M 464 500 L 552 581 L 568 483 Z" stroke="#fae4cf" fill="#fae4cf" style="animation-play-state:paused" ></path>
<path d="M 552 581 L 666 570 L 568 483 Z" stroke="#f8e1ca" fill="#f8e1ca" style="animation-play-state:paused" ></path>
<path d="M 456 260 L 349 370 L 448 379 Z" stroke="#f3f3f3" fill="#f3f3f3" style="animation-play-state:paused" ></path>
<path d="M 448 379 L 376 493 L 464 500 Z" stroke="#fdead9" fill="#fdead9" style="animation-play-state:paused" ></path>
<path d="M 336 278 L 349 370 L 456 260 Z" stroke="#f4f4f4" fill="#f4f4f4" style="animation-play-state:paused" ></path>
<path d="M 854 464 L 850 371 L 760 374 Z" stroke="#f8dfc8" fill="#f8dfc8" style="animation-play-state:paused" ></path>
<path d="M 850 371 L 836 257 L 754 270 Z" stroke="#fbe6d3" fill="#fbe6d3" style="animation-play-state:paused" ></path>
<path d="M 366 161 L 456 260 L 478 179 Z" stroke="#f6f6f6" fill="#f6f6f6" style="animation-play-state:paused" ></path>
<path d="M 366 161 L 336 278 L 456 260 Z" stroke="#f6f6f6" fill="#f6f6f6" style="animation-play-state:paused" ></path>
<path d="M 769 85 L 650 87 L 679 189 Z" stroke="#f5f5f5" fill="#f5f5f5" style="animation-play-state:paused" ></path>
<path d="M 550 -18 L 474 75 L 560 78 Z" stroke="#fafafa" fill="#fafafa" style="animation-play-state:paused" ></path>
<path d="M 560 78 L 474 75 L 547 161 Z" stroke="#f8f8f8" fill="#f8f8f8" style="animation-play-state:paused" ></path>
<path d="M 349 370 L 376 493 L 448 379 Z" stroke="#feeede" fill="#feeede" style="animation-play-state:paused" ></path>
<path d="M 464 500 L 461 598 L 552 581 Z" stroke="#fae4d0" fill="#fae4d0" style="animation-play-state:paused" ></path>
<path d="M 869 585 L 854 464 L 764 502 Z" stroke="#f4d9be" fill="#f4d9be" style="animation-play-state:paused" ></path>
<path d="M 764 502 L 854 464 L 760 374 Z" stroke="#f7dec5" fill="#f7dec5" style="animation-play-state:paused" ></path>
<path d="M 376 493 L 461 598 L 464 500 Z" stroke="#fce8d5" fill="#fce8d5" style="animation-play-state:paused" ></path>
<path d="M 552 581 L 563 666 L 666 570 Z" stroke="#f7dfc8" fill="#f7dfc8" style="animation-play-state:paused" ></path>
<path d="M 474 75 L 366 161 L 478 179 Z" stroke="#f8f8f8" fill="#f8f8f8" style="animation-play-state:paused" ></path>
<path d="M 869 177 L 769 85 L 785 200 Z" stroke="#f3f3f3" fill="#f3f3f3" style="animation-play-state:paused" ></path>
<path d="M 785 200 L 769 85 L 679 189 Z" stroke="#f3f3f3" fill="#f3f3f3" style="animation-play-state:paused" ></path>
<path d="M 959 279 L 869 177 L 836 257 Z" stroke="#fce9d7" fill="#fce9d7" style="animation-play-state:paused" ></path>
<path d="M 836 257 L 869 177 L 785 200 Z" stroke="#feecdc" fill="#feecdc" style="animation-play-state:paused" ></path>
<path d="M 959 279 L 836 257 L 850 371 Z" stroke="#fae4d0" fill="#fae4d0" style="animation-play-state:paused" ></path>
<path d="M 667 687 L 786 587 L 666 570 Z" stroke="#f5dac0" fill="#f5dac0" style="animation-play-state:paused" ></path>
<path d="M 666 570 L 786 587 L 764 502 Z" stroke="#f5dbc1" fill="#f5dbc1" style="animation-play-state:paused" ></path>
<path d="M 255 180 L 286 304 L 336 278 Z" stroke="#f7f7f7" fill="#f7f7f7" style="animation-play-state:paused" ></path>
<path d="M 336 278 L 286 304 L 349 370 Z" stroke="#f5f5f5" fill="#f5f5f5" style="animation-play-state:paused" ></path>
<path d="M 349 370 L 274 487 L 376 493 Z" stroke="#ffefdf" fill="#ffefdf" style="animation-play-state:paused" ></path>
<path d="M 461 598 L 563 666 L 552 581 Z" stroke="#f9e2cc" fill="#f9e2cc" style="animation-play-state:paused" ></path>
<path d="M 267 560 L 363 591 L 376 493 Z" stroke="#fdebda" fill="#fdebda" style="animation-play-state:paused" ></path>
<path d="M 376 493 L 363 591 L 461 598 Z" stroke="#fce8d6" fill="#fce8d6" style="animation-play-state:paused" ></path>
<path d="M 461 598 L 460 681 L 563 666 Z" stroke="#f9e3cd" fill="#f9e3cd" style="animation-play-state:paused" ></path>
<path d="M 563 666 L 667 687 L 666 570 Z" stroke="#f6ddc4" fill="#f6ddc4" style="animation-play-state:paused" ></path>
<path d="M 286 304 L 248 358 L 349 370 Z" stroke="#f5f5f5" fill="#f5f5f5" style="animation-play-state:paused" ></path>
<path d="M 474 75 L 357 65 L 366 161 Z" stroke="#fafafa" fill="#fafafa" style="animation-play-state:paused" ></path>
<path d="M 366 161 L 255 180 L 336 278 Z" stroke="#f8f8f8" fill="#f8f8f8" style="animation-play-state:paused" ></path>
<path d="M 450 -5 L 357 65 L 474 75 Z" stroke="#fbfbfb" fill="#fbfbfb" style="animation-play-state:paused" ></path>
<path d="M 646 -17 L 550 -18 L 650 87 Z" stroke="#fafafa" fill="#fafafa" style="animation-play-state:paused" ></path>
<path d="M 650 87 L 550 -18 L 560 78 Z" stroke="#f9f9f9" fill="#f9f9f9" style="animation-play-state:paused" ></path>
<path d="M 767 -29 L 650 87 L 769 85 Z" stroke="#f7f7f7" fill="#f7f7f7" style="animation-play-state:paused" ></path>
<path d="M 767 -29 L 646 -17 L 650 87 Z" stroke="#f9f9f9" fill="#f9f9f9" style="animation-play-state:paused" ></path>
<path d="M 869 177 L 879 88 L 769 85 Z" stroke="#f4f4f4" fill="#f4f4f4" style="animation-play-state:paused" ></path>
<path d="M 874 693 L 869 585 L 786 587 Z" stroke="#f2d4b7" fill="#f2d4b7" style="animation-play-state:paused" ></path>
<path d="M 786 587 L 869 585 L 764 502 Z" stroke="#f4d8bd" fill="#f4d8bd" style="animation-play-state:paused" ></path>
<path d="M 955 377 L 959 279 L 850 371 Z" stroke="#f8e0ca" fill="#f8e0ca" style="animation-play-state:paused" ></path>
<path d="M 869 177 L 962 184 L 879 88 Z" stroke="#f2f2f2" fill="#f2f2f2" style="animation-play-state:paused" ></path>
<path d="M 955 377 L 850 371 L 854 464 Z" stroke="#f7ddc5" fill="#f7ddc5" style="animation-play-state:paused" ></path>
<path d="M 248 358 L 274 487 L 349 370 Z" stroke="#f3f3f3" fill="#f3f3f3" style="animation-play-state:paused" ></path>
<path d="M 975 470 L 955 377 L 854 464 Z" stroke="#f5dac0" fill="#f5dac0" style="animation-play-state:paused" ></path>
<path d="M 550 -18 L 450 -5 L 474 75 Z" stroke="#fbfbfb" fill="#fbfbfb" style="animation-play-state:paused" ></path>
<path d="M 274 97 L 255 180 L 366 161 Z" stroke="#fafafa" fill="#fafafa" style="animation-play-state:paused" ></path>
<path d="M 286 304 L 153 282 L 248 358 Z" stroke="#f6f6f6" fill="#f6f6f6" style="animation-play-state:paused" ></path>
<path d="M 363 591 L 460 681 L 461 598 Z" stroke="#fbe6d2" fill="#fbe6d2" style="animation-play-state:paused" ></path>
<path d="M 563 666 L 460 681 L 667 687 Z" stroke="#f8dfc8" fill="#f8dfc8" style="animation-play-state:paused" ></path>
<path d="M 362 675 L 460 681 L 363 591 Z" stroke="#fbe7d4" fill="#fbe7d4" style="animation-play-state:paused" ></path>
<path d="M 860 -40 L 767 -29 L 769 85 Z" stroke="#f8f8f8" fill="#f8f8f8" style="animation-play-state:paused" ></path>
<path d="M 959 279 L 962 184 L 869 177 Z" stroke="#fdead8" fill="#fdead8" style="animation-play-state:paused" ></path>
<path d="M 879 88 L 860 -40 L 769 85 Z" stroke="#f7f7f7" fill="#f7f7f7" style="animation-play-state:paused" ></path>
<path d="M 959 575 L 975 470 L 854 464 Z" stroke="#f3d6ba" fill="#f3d6ba" style="animation-play-state:paused" ></path>
<path d="M 667 687 L 789 698 L 786 587 Z" stroke="#f4d7bc" fill="#f4d7bc" style="animation-play-state:paused" ></path>
<path d="M 869 585 L 959 575 L 854 464 Z" stroke="#f3d5b9" fill="#f3d5b9" style="animation-play-state:paused" ></path>
<path d="M 460 681 L 789 698 L 667 687 Z" stroke="#f6dcc3" fill="#f6dcc3" style="animation-play-state:paused" ></path>
<path d="M 242 -12 L 274 97 L 357 65 Z" stroke="#fdfdfd" fill="#fdfdfd" style="animation-play-state:paused" ></path>
<path d="M 357 65 L 274 97 L 366 161 Z" stroke="#fafafa" fill="#fafafa" style="animation-play-state:paused" ></path>
<path d="M 874 693 L 959 575 L 869 585 Z" stroke="#eec8a7" fill="#eec8a7" style="animation-play-state:paused" ></path>
<path d="M 267 560 L 362 675 L 363 591 Z" stroke="#fdead9" fill="#fdead9" style="animation-play-state:paused" ></path>
<path d="M 450 -5 L 366 -14 L 357 65 Z" stroke="#fcfcfc" fill="#fcfcfc" style="animation-play-state:paused" ></path>
<path d="M 369 -111 L 366 -14 L 450 -5 Z" stroke="#fefefe" fill="#fefefe" style="animation-play-state:paused" ></path>
<path d="M 274 487 L 267 560 L 376 493 Z" stroke="#feeede" fill="#feeede" style="animation-play-state:paused" ></path>
<path d="M 159 558 L 267 560 L 274 487 Z" stroke="#f2f2f2" fill="#f2f2f2" style="animation-play-state:paused" ></path>
<path d="M 159 191 L 153 282 L 255 180 Z" stroke="#f9f9f9" fill="#f9f9f9" style="animation-play-state:paused" ></path>
<path d="M 255 180 L 153 282 L 286 304 Z" stroke="#f8f8f8" fill="#f8f8f8" style="animation-play-state:paused" ></path>
<path d="M 248 358 L 142 475 L 274 487 Z" stroke="#f4f4f4" fill="#f4f4f4" style="animation-play-state:paused" ></path>
<path d="M 1054 169 L 948 74 L 962 184 Z" stroke="#ffeedf" fill="#ffeedf" style="animation-play-state:paused" ></path>
<path d="M 962 184 L 948 74 L 879 88 Z" stroke="#f3f3f3" fill="#f3f3f3" style="animation-play-state:paused" ></path>
<path d="M 948 74 L 860 -40 L 879 88 Z" stroke="#f6f6f6" fill="#f6f6f6" style="animation-play-state:paused" ></path>
<path d="M 679 -101 L 573 -115 L 646 -17 Z" stroke="#fdfdfd" fill="#fdfdfd" style="animation-play-state:paused" ></path>
<path d="M 646 -17 L 573 -115 L 550 -18 Z" stroke="#fcfcfc" fill="#fcfcfc" style="animation-play-state:paused" ></path>
<path d="M 550 -18 L 476 -110 L 450 -5 Z" stroke="#fdfdfd" fill="#fdfdfd" style="animation-play-state:paused" ></path>
<path d="M 679 -101 L 646 -17 L 767 -29 Z" stroke="#fbfbfb" fill="#fbfbfb" style="animation-play-state:paused" ></path>
<path d="M 763 -134 L 679 -101 L 767 -29 Z" stroke="#fcfcfc" fill="#fcfcfc" style="animation-play-state:paused" ></path>
<path d="M 955 377 L 1039 367 L 959 279 Z" stroke="#f7dfc8" fill="#f7dfc8" style="animation-play-state:paused" ></path>
<path d="M 959 279 L 1054 169 L 962 184 Z" stroke="#fce9d7" fill="#fce9d7" style="animation-play-state:paused" ></path>
<path d="M 1066 475 L 1039 367 L 955 377 Z" stroke="#f5d9bf" fill="#f5d9bf" style="animation-play-state:paused" ></path>
<path d="M 1066 475 L 955 377 L 975 470 Z" stroke="#f4d8bd" fill="#f4d8bd" style="animation-play-state:paused" ></path>
<path d="M 789 698 L 874 693 L 786 587 Z" stroke="#f2d4b8" fill="#f2d4b8" style="animation-play-state:paused" ></path>
<path d="M 153 282 L 153 356 L 248 358 Z" stroke="#f7f7f7" fill="#f7f7f7" style="animation-play-state:paused" ></path>
<path d="M 274 97 L 159 191 L 255 180 Z" stroke="#fafafa" fill="#fafafa" style="animation-play-state:paused" ></path>
<path d="M 153 282 L 60 303 L 153 356 Z" stroke="#f8f8f8" fill="#f8f8f8" style="animation-play-state:paused" ></path>
<path d="M 152 73 L 159 191 L 274 97 Z" stroke="#fcfcfc" fill="#fcfcfc" style="animation-play-state:paused" ></path>
<path d="M 153 356 L 142 475 L 248 358 Z" stroke="#f6f6f6" fill="#f6f6f6" style="animation-play-state:paused" ></path>
<path d="M 763 -134 L 476 -110 L 573 -115 Z" stroke="#ffffff" fill="#ffffff" style="animation-play-state:paused" ></path>
<path d="M 573 -115 L 476 -110 L 550 -18 Z" stroke="#fefefe" fill="#fefefe" style="animation-play-state:paused" ></path>
<path d="M 366 -14 L 242 -12 L 357 65 Z" stroke="#fdfdfd" fill="#fdfdfd" style="animation-play-state:paused" ></path>
<path d="M 1039 367 L 1057 277 L 959 279 Z" stroke="#f8e1ca" fill="#f8e1ca" style="animation-play-state:paused" ></path>
<path d="M 1074 578 L 975 470 L 959 575 Z" stroke="#edc5a3" fill="#edc5a3" style="animation-play-state:paused" ></path>
<path d="M 1074 578 L 1066 475 L 975 470 Z" stroke="#efcaa9" fill="#efcaa9" style="animation-play-state:paused" ></path>
<path d="M 1039 367 L 1155 373 L 1057 277 Z" stroke="#f7ddc5" fill="#f7ddc5" style="animation-play-state:paused" ></path>
<path d="M 1057 277 L 1054 169 L 959 279 Z" stroke="#fbe6d2" fill="#fbe6d2" style="animation-play-state:paused" ></path>
<path d="M 948 74 L 957 -16 L 860 -40 Z" stroke="#f7f7f7" fill="#f7f7f7" style="animation-play-state:paused" ></path>
<path d="M 860 -40 L 763 -134 L 767 -29 Z" stroke="#fbfbfb" fill="#fbfbfb" style="animation-play-state:paused" ></path>
<path d="M 679 -101 L 763 -134 L 573 -115 Z" stroke="#fefefe" fill="#fefefe" style="animation-play-state:paused" ></path>
<path d="M 159 558 L 250 657 L 267 560 Z" stroke="#f2f2f2" fill="#f2f2f2" style="animation-play-state:paused" ></path>
<path d="M 267 560 L 250 657 L 362 675 Z" stroke="#fdecdb" fill="#fdecdb" style="animation-play-state:paused" ></path>
<path d="M 362 675 L 250 657 L 460 681 Z" stroke="#fce8d6" fill="#fce8d6" style="animation-play-state:paused" ></path>
<path d="M 476 -110 L 369 -111 L 450 -5 Z" stroke="#fdfdfd" fill="#fdfdfd" style="animation-play-state:paused" ></path>
<path d="M 369 -111 L 242 -12 L 366 -14 Z" stroke="#f7f7f7" fill="#f7f7f7" style="animation-play-state:paused" ></path>
<path d="M 1058 76 L 957 -16 L 948 74 Z" stroke="#f5f5f5" fill="#f5f5f5" style="animation-play-state:paused" ></path>
<path d="M 860 -40 L 882 -105 L 763 -134 Z" stroke="#fcfcfc" fill="#fcfcfc" style="animation-play-state:paused" ></path>
<path d="M 142 475 L 159 558 L 274 487 Z" stroke="#f4f4f4" fill="#f4f4f4" style="animation-play-state:paused" ></path>
<path d="M 60 474 L 159 558 L 142 475 Z" stroke="#f5f5f5" fill="#f5f5f5" style="animation-play-state:paused" ></path>
<path d="M 1176 691 L 965 685 L 874 693 Z" stroke="#e5a67e" fill="#e5a67e" style="animation-play-state:paused" ></path>
<path d="M 874 693 L 965 685 L 959 575 Z" stroke="#ebbc98" fill="#ebbc98" style="animation-play-state:paused" ></path>
<path d="M 957 -16 L 882 -105 L 860 -40 Z" stroke="#fafafa" fill="#fafafa" style="animation-play-state:paused" ></path>
<path d="M 1146 63 L 1058 76 L 1054 169 Z" stroke="#f2f2f2" fill="#f2f2f2" style="animation-play-state:paused" ></path>
<path d="M 1054 169 L 1058 76 L 948 74 Z" stroke="#f3f3f3" fill="#f3f3f3" style="animation-play-state:paused" ></path>
<path d="M 957 -16 L 978 -105 L 882 -105 Z" stroke="#fafafa" fill="#fafafa" style="animation-play-state:paused" ></path>
<path d="M 242 -12 L 152 73 L 274 97 Z" stroke="#fefefe" fill="#fefefe" style="animation-play-state:paused" ></path>
<path d="M 159 191 L 60 303 L 153 282 Z" stroke="#fafafa" fill="#fafafa" style="animation-play-state:paused" ></path>
<path d="M 965 685 L 1074 578 L 959 575 Z" stroke="#e8b38d" fill="#e8b38d" style="animation-play-state:paused" ></path>
<path d="M 1158 475 L 1155 373 L 1039 367 Z" stroke="#f4d7bc" fill="#f4d7bc" style="animation-play-state:paused" ></path>
<path d="M 61 158 L 60 303 L 159 191 Z" stroke="#fbfbfb" fill="#fbfbfb" style="animation-play-state:paused" ></path>
<path d="M 153 356 L 52 372 L 142 475 Z" stroke="#f7f7f7" fill="#f7f7f7" style="animation-play-state:paused" ></path>
<path d="M 60 303 L 52 372 L 153 356 Z" stroke="#f8f8f8" fill="#f8f8f8" style="animation-play-state:paused" ></path>
<path d="M 1158 475 L 1039 367 L 1066 475 Z" stroke="#f3d6b9" fill="#f3d6b9" style="animation-play-state:paused" ></path>
<path d="M 1057 277 L 1159 256 L 1054 169 Z" stroke="#fbe5d1" fill="#fbe5d1" style="animation-play-state:paused" ></path>
<path d="M 1155 373 L 1159 256 L 1057 277 Z" stroke="#f8dfc8" fill="#f8dfc8" style="animation-play-state:paused" ></path>
<path d="M 242 -12 L 170 -30 L 152 73 Z" stroke="#f6f6f6" fill="#f6f6f6" style="animation-play-state:paused" ></path>
<path d="M 76 81 L 61 158 L 159 191 Z" stroke="#fdfdfd" fill="#fdfdfd" style="animation-play-state:paused" ></path>
<path d="M 267 -117 L 170 -30 L 242 -12 Z" stroke="#dadada" fill="#dadada" style="animation-play-state:paused" ></path>
<path d="M 67 573 L 148 665 L 159 558 Z" stroke="#f4f4f4" fill="#f4f4f4" style="animation-play-state:paused" ></path>
<path d="M 159 558 L 148 665 L 250 657 Z" stroke="#f2f2f2" fill="#f2f2f2" style="animation-play-state:paused" ></path>
<path d="M 250 657 L 148 665 L 460 681 Z" stroke="#fdebdb" fill="#fdebdb" style="animation-play-state:paused" ></path>
<path d="M 52 372 L 60 474 L 142 475 Z" stroke="#f7f7f7" fill="#f7f7f7" style="animation-play-state:paused" ></path>
<path d="M 1161 570 L 1158 475 L 1066 475 Z" stroke="#ebbc98" fill="#ebbc98" style="animation-play-state:paused" ></path>
<path d="M 965 685 L 1043 661 L 1074 578 Z" stroke="#e5a77f" fill="#e5a77f" style="animation-play-state:paused" ></path>
<path d="M 1074 578 L 1161 570 L 1066 475 Z" stroke="#e8b48e" fill="#e8b48e" style="animation-play-state:paused" ></path>
<path d="M 369 -111 L 267 -117 L 242 -12 Z" stroke="#d9d9d9" fill="#d9d9d9" style="animation-play-state:paused" ></path>
<path d="M 476 -110 L 267 -117 L 369 -111 Z" stroke="#d6d6d6" fill="#d6d6d6" style="animation-play-state:paused" ></path>
<path d="M 763 -134 L 267 -117 L 476 -110 Z" stroke="#ededed" fill="#ededed" style="animation-play-state:paused" ></path>
<path d="M 76 81 L 159 191 L 152 73 Z" stroke="#fdfdfd" fill="#fdfdfd" style="animation-play-state:paused" ></path>
<path d="M 60 303 L -45 375 L 52 372 Z" stroke="#f9f9f9" fill="#f9f9f9" style="animation-play-state:paused" ></path>
<path d="M 52 372 L -45 375 L 60 474 Z" stroke="#f8f8f8" fill="#f8f8f8" style="animation-play-state:paused" ></path>
<path d="M 882 -105 L 978 -105 L 763 -134 Z" stroke="#fcfcfc" fill="#fcfcfc" style="animation-play-state:paused" ></path>
<path d="M 1057 -3 L 978 -105 L 957 -16 Z" stroke="#f9f9f9" fill="#f9f9f9" style="animation-play-state:paused" ></path>
<path d="M 1057 -3 L 957 -16 L 1058 76 Z" stroke="#f6f6f6" fill="#f6f6f6" style="animation-play-state:paused" ></path>
<path d="M 1146 63 L 1057 -3 L 1058 76 Z" stroke="#f5f5f5" fill="#f5f5f5" style="animation-play-state:paused" ></path>
<path d="M 1159 256 L 1173 170 L 1054 169 Z" stroke="#fce8d5" fill="#fce8d5" style="animation-play-state:paused" ></path>
<path d="M 1245 278 L 1173 170 L 1159 256 Z" stroke="#fae4cf" fill="#fae4cf" style="animation-play-state:paused" ></path>
<path d="M 1245 278 L 1159 256 L 1155 373 Z" stroke="#f7dec7" fill="#f7dec7" style="animation-play-state:paused" ></path>
<path d="M 76 -21 L 152 73 L 170 -30 Z" stroke="#e5e5e5" fill="#e5e5e5" style="animation-play-state:paused" ></path>
<path d="M 76 -21 L 76 81 L 152 73 Z" stroke="#f2f2f2" fill="#f2f2f2" style="animation-play-state:paused" ></path>
<path d="M 60 474 L 67 573 L 159 558 Z" stroke="#f5f5f5" fill="#f5f5f5" style="animation-play-state:paused" ></path>
<path d="M 1043 661 L 1161 570 L 1074 578 Z" stroke="#e3a179" fill="#e3a179" style="animation-play-state:paused" ></path>
<path d="M 1268 373 L 1245 278 L 1155 373 Z" stroke="#f5dbc1" fill="#f5dbc1" style="animation-play-state:paused" ></path>
<path d="M 1173 170 L 1146 63 L 1054 169 Z" stroke="#feeddd" fill="#feeddd" style="animation-play-state:paused" ></path>
<path d="M 159 -143 L 76 -21 L 170 -30 Z" stroke="#bbbbbb" fill="#bbbbbb" style="animation-play-state:paused" ></path>
<path d="M -52 61 L -21 191 L 61 158 Z" stroke="#ffffff" fill="#ffffff" style="animation-play-state:paused" ></path>
<path d="M -70 256 L -45 375 L 60 303 Z" stroke="#fbfbfb" fill="#fbfbfb" style="animation-play-state:paused" ></path>
<path d="M 60 474 L -43 467 L 67 573 Z" stroke="#f7f7f7" fill="#f7f7f7" style="animation-play-state:paused" ></path>
<path d="M -21 191 L 60 303 L 61 158 Z" stroke="#fcfcfc" fill="#fcfcfc" style="animation-play-state:paused" ></path>
<path d="M 267 -117 L 159 -143 L 170 -30 Z" stroke="#b8b8b8" fill="#b8b8b8" style="animation-play-state:paused" ></path>
<path d="M 1048 -142 L 159 -143 L 267 -117 Z" stroke="#e1e1e1" fill="#e1e1e1" style="animation-play-state:paused" ></path>
<path d="M -47 570 L 65 675 L 67 573 Z" stroke="#f6f6f6" fill="#f6f6f6" style="animation-play-state:paused" ></path>
<path d="M 67 573 L 65 675 L 148 665 Z" stroke="#f4f4f4" fill="#f4f4f4" style="animation-play-state:paused" ></path>
<path d="M 148 665 L -29 697 L 460 681 Z" stroke="#f2f2f2" fill="#f2f2f2" style="animation-play-state:paused" ></path>
<path d="M 978 -105 L 1048 -142 L 763 -134 Z" stroke="#fdfdfd" fill="#fdfdfd" style="animation-play-state:paused" ></path>
<path d="M 763 -134 L 1048 -142 L 267 -117 Z" stroke="#fefefe" fill="#fefefe" style="animation-play-state:paused" ></path>
<path d="M 1057 -3 L 1048 -142 L 978 -105 Z" stroke="#fafafa" fill="#fafafa" style="animation-play-state:paused" ></path>
<path d="M 1161 -117 L 1048 -142 L 1057 -3 Z" stroke="#fafafa" fill="#fafafa" style="animation-play-state:paused" ></path>
<path d="M -52 61 L 61 158 L 76 81 Z" stroke="#fafafa" fill="#fafafa" style="animation-play-state:paused" ></path>
<path d="M 1268 373 L 1155 373 L 1158 475 Z" stroke="#f3d6ba" fill="#f3d6ba" style="animation-play-state:paused" ></path>
<path d="M 1173 170 L 1261 85 L 1146 63 Z" stroke="#ffefe0" fill="#ffefe0" style="animation-play-state:paused" ></path>
<path d="M -21 191 L -70 256 L 60 303 Z" stroke="#fcfcfc" fill="#fcfcfc" style="animation-play-state:paused" ></path>
<path d="M 1254 476 L 1268 373 L 1158 475 Z" stroke="#f0cdad" fill="#f0cdad" style="animation-play-state:paused" ></path>
<path d="M -165 461 L -43 467 L -45 375 Z" stroke="#fafafa" fill="#fafafa" style="animation-play-state:paused" ></path>
<path d="M -45 375 L -43 467 L 60 474 Z" stroke="#f9f9f9" fill="#f9f9f9" style="animation-play-state:paused" ></path>
<path d="M 1261 85 L 1180 -3 L 1146 63 Z" stroke="#f4f4f4" fill="#f4f4f4" style="animation-play-state:paused" ></path>
<path d="M 1146 63 L 1180 -3 L 1057 -3 Z" stroke="#f6f6f6" fill="#f6f6f6" style="animation-play-state:paused" ></path>
<path d="M 1245 278 L 1267 164 L 1173 170 Z" stroke="#fbe6d3" fill="#fbe6d3" style="animation-play-state:paused" ></path>
<path d="M 1357 275 L 1267 164 L 1245 278 Z" stroke="#f9e3cd" fill="#f9e3cd" style="animation-play-state:paused" ></path>
<path d="M 1043 661 L 1176 691 L 1161 570 Z" stroke="#df8f68" fill="#df8f68" style="animation-play-state:paused" ></path>
<path d="M 1161 570 L 1254 476 L 1158 475 Z" stroke="#e8b48e" fill="#e8b48e" style="animation-play-state:paused" ></path>
<path d="M 965 685 L 1176 691 L 1043 661 Z" stroke="#e19871" fill="#e19871" style="animation-play-state:paused" ></path>
<path d="M 789 698 L 1176 691 L 874 693 Z" stroke="#e9b48f" fill="#e9b48f" style="animation-play-state:paused" ></path>
<path d="M 1270 582 L 1254 476 L 1161 570 Z" stroke="#e3a078" fill="#e3a078" style="animation-play-state:paused" ></path>
<path d="M 1268 373 L 1357 275 L 1245 278 Z" stroke="#f6ddc5" fill="#f6ddc5" style="animation-play-state:paused" ></path>
<path d="M -43 467 L -47 570 L 67 573 Z" stroke="#f7f7f7" fill="#f7f7f7" style="animation-play-state:paused" ></path>
<path d="M -140 178 L -146 268 L -70 256 Z" stroke="#fefefe" fill="#fefefe" style="animation-play-state:paused" ></path>
<path d="M 76 -21 L -52 61 L 76 81 Z" stroke="#dbdbdb" fill="#dbdbdb" style="animation-play-state:paused" ></path>
<path d="M -45 -26 L -52 61 L 76 -21 Z" stroke="#bcbcbc" fill="#bcbcbc" style="animation-play-state:paused" ></path>
<path d="M 159 -143 L 66 -112 L 76 -21 Z" stroke="#a3a3a3" fill="#a3a3a3" style="animation-play-state:paused" ></path>
<path d="M 1377 91 L 1261 85 L 1267 164 Z" stroke="#feedde" fill="#feedde" style="animation-play-state:paused" ></path>
<path d="M 1267 164 L 1261 85 L 1173 170 Z" stroke="#fdecdb" fill="#fdecdb" style="animation-play-state:paused" ></path>
<path d="M 1180 -3 L 1161 -117 L 1057 -3 Z" stroke="#f8f8f8" fill="#f8f8f8" style="animation-play-state:paused" ></path>
<path d="M 1270 -24 L 1161 -117 L 1180 -3 Z" stroke="#f8f8f8" fill="#f8f8f8" style="animation-play-state:paused" ></path>
<path d="M 1176 691 L 1270 582 L 1161 570 Z" stroke="#dc8661" fill="#dc8661" style="animation-play-state:paused" ></path>
<path d="M 1254 476 L 1357 472 L 1268 373 Z" stroke="#eec8a7" fill="#eec8a7" style="animation-play-state:paused" ></path>
<path d="M -47 570 L -29 697 L 65 675 Z" stroke="#f6f6f6" fill="#f6f6f6" style="animation-play-state:paused" ></path>
<path d="M 65 675 L -29 697 L 148 665 Z" stroke="#f5f5f5" fill="#f5f5f5" style="animation-play-state:paused" ></path>
<path d="M -132 695 L -29 697 L -47 570 Z" stroke="#f8f8f8" fill="#f8f8f8" style="animation-play-state:paused" ></path>
<path d="M -140 178 L -70 256 L -21 191 Z" stroke="#fefefe" fill="#fefefe" style="animation-play-state:paused" ></path>
<path d="M -70 256 L -146 268 L -45 375 Z" stroke="#fdfdfd" fill="#fdfdfd" style="animation-play-state:paused" ></path>
<path d="M -43 467 L -145 588 L -47 570 Z" stroke="#f9f9f9" fill="#f9f9f9" style="animation-play-state:paused" ></path>
<path d="M -17 -111 L -45 -26 L 76 -21 Z" stroke="#a0a0a0" fill="#a0a0a0" style="animation-play-state:paused" ></path>
<path d="M -52 61 L -117 90 L -21 191 Z" stroke="#e4e4e4" fill="#e4e4e4" style="animation-play-state:paused" ></path>
<path d="M 1377 -15 L 1270 -24 L 1261 85 Z" stroke="#f5f5f5" fill="#f5f5f5" style="animation-play-state:paused" ></path>
<path d="M 1261 85 L 1270 -24 L 1180 -3 Z" stroke="#f5f5f5" fill="#f5f5f5" style="animation-play-state:paused" ></path>
<path d="M -146 268 L -153 381 L -45 375 Z" stroke="#fcfcfc" fill="#fcfcfc" style="animation-play-state:paused" ></path>
<path d="M 1176 691 L 1263 685 L 1270 582 Z" stroke="#d77251" fill="#d77251" style="animation-play-state:paused" ></path>
<path d="M -146 -29 L -117 90 L -52 61 Z" stroke="#b2b2b2" fill="#b2b2b2" style="animation-play-state:paused" ></path>
<path d="M -250 281 L -234 382 L -153 381 Z" stroke="#fefefe" fill="#fefefe" style="animation-play-state:paused" ></path>
<path d="M 1358 585 L 1254 476 L 1270 582 Z" stroke="#e0966e" fill="#e0966e" style="animation-play-state:paused" ></path>
<path d="M 1358 585 L 1357 472 L 1254 476 Z" stroke="#e4a57e" fill="#e4a57e" style="animation-play-state:paused" ></path>
<path d="M 1351 395 L 1357 275 L 1268 373 Z" stroke="#f5d9bf" fill="#f5d9bf" style="animation-play-state:paused" ></path>
<path d="M -153 381 L -165 461 L -45 375 Z" stroke="#fbfbfb" fill="#fbfbfb" style="animation-play-state:paused" ></path>
<path d="M -117 90 L -140 178 L -21 191 Z" stroke="#ededed" fill="#ededed" style="animation-play-state:paused" ></path>
<path d="M -153 381 L -234 382 L -165 461 Z" stroke="#fdfdfd" fill="#fdfdfd" style="animation-play-state:paused" ></path>
<path d="M 1357 472 L 1351 395 L 1268 373 Z" stroke="#f2d3b6" fill="#f2d3b6" style="animation-play-state:paused" ></path>
<path d="M 66 -112 L -17 -111 L 76 -21 Z" stroke="#9a9a9a" fill="#9a9a9a" style="animation-play-state:paused" ></path>
<path d="M -45 -26 L -146 -29 L -52 61 Z" stroke="#a6a6a6" fill="#a6a6a6" style="animation-play-state:paused" ></path>
<path d="M -165 461 L -145 588 L -43 467 Z" stroke="#fafafa" fill="#fafafa" style="animation-play-state:paused" ></path>
<path d="M 1351 395 L 1359 180 L 1357 275 Z" stroke="#f7dfc7" fill="#f7dfc7" style="animation-play-state:paused" ></path>
<path d="M 1357 275 L 1359 180 L 1267 164 Z" stroke="#fbe5d1" fill="#fbe5d1" style="animation-play-state:paused" ></path>
<path d="M 1377 -15 L 1263 -106 L 1270 -24 Z" stroke="#f8f8f8" fill="#f8f8f8" style="animation-play-state:paused" ></path>
<path d="M 1270 -24 L 1263 -106 L 1161 -117 Z" stroke="#f9f9f9" fill="#f9f9f9" style="animation-play-state:paused" ></path>
<path d="M 1161 -117 L 1346 -123 L 1048 -142 Z" stroke="#fbfbfb" fill="#fbfbfb" style="animation-play-state:paused" ></path>
<path d="M 1359 180 L 1377 91 L 1267 164 Z" stroke="#fdebd9" fill="#fdebd9" style="animation-play-state:paused" ></path>
<path d="M 1353 685 L 1358 585 L 1270 582 Z" stroke="#d77050" fill="#d77050" style="animation-play-state:paused" ></path>
<path d="M 1357 472 L 1358 585 L 1351 395 Z" stroke="#e8b18a" fill="#e8b18a" style="animation-play-state:paused" ></path>
<path d="M 1351 395 L 1358 585 L 1359 180 Z" stroke="#f3d6ba" fill="#f3d6ba" style="animation-play-state:paused" ></path>
<path d="M -145 588 L -132 695 L -47 570 Z" stroke="#f9f9f9" fill="#f9f9f9" style="animation-play-state:paused" ></path>
<path d="M -29 697 L -132 695 L 460 681 Z" stroke="#f4f4f4" fill="#f4f4f4" style="animation-play-state:paused" ></path>
<path d="M -236 675 L -132 695 L -145 588 Z" stroke="#fafafa" fill="#fafafa" style="animation-play-state:paused" ></path>
<path d="M -152 -135 L -146 -29 L -45 -26 Z" stroke="#7b7b7b" fill="#7b7b7b" style="animation-play-state:paused" ></path>
<path d="M -235 86 L -242 152 L -140 178 Z" stroke="#c1c1c1" fill="#c1c1c1" style="animation-play-state:paused" ></path>
<path d="M 1263 685 L 1353 685 L 1270 582 Z" stroke="#d46549" fill="#d46549" style="animation-play-state:paused" ></path>
<path d="M -250 281 L -153 381 L -146 268 Z" stroke="#fefefe" fill="#fefefe" style="animation-play-state:paused" ></path>
<path d="M -165 461 L -241 575 L -145 588 Z" stroke="#fbfbfb" fill="#fbfbfb" style="animation-play-state:paused" ></path>
<path d="M -250 281 L -146 268 L -140 178 Z" stroke="#f7f7f7" fill="#f7f7f7" style="animation-play-state:paused" ></path>
<path d="M -242 152 L -250 281 L -140 178 Z" stroke="#dbdbdb" fill="#dbdbdb" style="animation-play-state:paused" ></path>
<path d="M 1359 180 L 1377 -15 L 1377 91 Z" stroke="#f2f2f2" fill="#f2f2f2" style="animation-play-state:paused" ></path>
<path d="M 1377 91 L 1377 -15 L 1261 85 Z" stroke="#f4f4f4" fill="#f4f4f4" style="animation-play-state:paused" ></path>
<path d="M -250 281 L -256 456 L -234 382 Z" stroke="#fefefe" fill="#fefefe" style="animation-play-state:paused" ></path>
<path d="M -234 382 L -256 456 L -165 461 Z" stroke="#fdfdfd" fill="#fdfdfd" style="animation-play-state:paused" ></path>
<path d="M -235 86 L -140 178 L -117 90 Z" stroke="#c5c5c5" fill="#c5c5c5" style="animation-play-state:paused" ></path>
<path d="M -250 281 L -242 152 L -256 456 Z" stroke="#f1f1f1" fill="#f1f1f1" style="animation-play-state:paused" ></path>
<path d="M -256 456 L -241 575 L -165 461 Z" stroke="#fcfcfc" fill="#fcfcfc" style="animation-play-state:paused" ></path>
<path d="M -17 -111 L -152 -135 L -45 -26 Z" stroke="#787878" fill="#787878" style="animation-play-state:paused" ></path>
<path d="M -223 -5 L -235 86 L -117 90 Z" stroke="#a0a0a0" fill="#a0a0a0" style="animation-play-state:paused" ></path>
<path d="M 66 -112 L -152 -135 L -17 -111 Z" stroke="#737373" fill="#737373" style="animation-play-state:paused" ></path>
<path d="M 159 -143 L -152 -135 L 66 -112 Z" stroke="#7b7b7b" fill="#7b7b7b" style="animation-play-state:paused" ></path>
<path d="M 1048 -142 L -152 -135 L 159 -143 Z" stroke="#c0c0c0" fill="#c0c0c0" style="animation-play-state:paused" ></path>
<path d="M 1377 -15 L 1346 -123 L 1263 -106 Z" stroke="#f9f9f9" fill="#f9f9f9" style="animation-play-state:paused" ></path>
<path d="M 1263 -106 L 1346 -123 L 1161 -117 Z" stroke="#fbfbfb" fill="#fbfbfb" style="animation-play-state:paused" ></path>
<path d="M -223 -5 L -117 90 L -146 -29 Z" stroke="#979797" fill="#979797" style="animation-play-state:paused" ></path>
<path d="M -248 -102 L -223 -5 L -146 -29 Z" stroke="#6c6c6c" fill="#6c6c6c" style="animation-play-state:paused" ></path>
<path d="M -256 456 L -236 675 L -241 575 Z" stroke="#fcfcfc" fill="#fcfcfc" style="animation-play-state:paused" ></path>
<path d="M -241 575 L -236 675 L -145 588 Z" stroke="#fbfbfb" fill="#fbfbfb" style="animation-play-state:paused" ></path>
<path d="M -152 -135 L -248 -102 L -146 -29 Z" stroke="#5e5e5e" fill="#5e5e5e" style="animation-play-state:paused" ></path>
<path d="M -223 -5 L -248 -102 L -235 86 Z" stroke="#767676" fill="#767676" style="animation-play-state:paused" ></path>
<path d="M -235 86 L -248 -102 L -242 152 Z" stroke="#8c8c8c" fill="#8c8c8c" style="animation-play-state:paused" ></path></g>
<style type="text/css" style="animation-play-state:paused" >#bk-0.3567116736347016 path { stroke-width: 1 }</style></g></svg>